<?xml version="1.0" encoding="utf-8"?>
<!-- Generator: Adobe Illustrator 16.0.0, SVG Export Plug-In . SVG Version: 6.00 Build 0)  -->
<!DOCTYPE svg PUBLIC "-//W3C//DTD SVG 1.1//EN" "http://www.w3.org/Graphics/SVG/1.1/DTD/svg11.dtd">
<svg version="1.1" id="Layer_1" xmlns="http://www.w3.org/2000/svg" xmlns:xlink="http://www.w3.org/1999/xlink" x="0px" y="0px"
	 width="792px" height="612px" viewBox="0 0 792 612" enable-background="new 0 0 792 612" xml:space="preserve">
<path fill-rule="evenodd" clip-rule="evenodd" fill="#FCFCFC" d="M739.858,238.896c0-198.777,0.006-397.556-0.07-596.333
	c-0.002-2.812,0.633-3.446,3.445-3.445c397.805,0.073,795.61,0.073,1193.417,0c2.811-0.001,3.445,0.632,3.445,3.445
	c-0.074,397.805-0.074,795.61,0,1193.415c0,2.813-0.631,3.447-3.445,3.445c-397.805-0.072-795.61-0.072-1193.417,0
	c-2.811,0-3.447-0.629-3.445-3.443C739.864,636.952,739.858,437.922,739.858,238.896z"/>
<g id="XMLID_1_">
	<g>
		<path fill="#FDFDFD" d="M-193.167,267.867c0.48,6.68,0.48,13.36,0,20.04C-193.167,281.227-193.167,274.546-193.167,267.867z"/>
		<path fill="#FDFDFD" d="M-193.438,301.187c-0.46,1.28,0.13,2.68-0.48,3.93C-193.868,303.796-194.408,302.407-193.438,301.187z"/>
		<path fill="#FDFDFD" d="M-193.917,250.657c0.61,1.25,0.02,2.66,0.48,3.94C-194.408,253.377-193.868,251.977-193.917,250.657z"/>
		<path fill="#FDFDFD" d="M-259.607,316.887c3.48-0.021,4.04,1.029,4,4.21c-0.19,17.37-0.19,34.75-0.09,52.12
			c0.01,2.859-0.68,3.77-3.71,3.76c-45-0.17-90-0.221-135-0.181c-3.01,0-3.68-0.859-3.67-3.75c0.11-65.75,0.15-131.5,0.07-197.25
			c0-3.16,1.07-3.66,3.85-3.64c21.25,0.14,42.5,0.15,63.75,0.18c1.12,0,2.24-0.11,3.36-0.16c0.85,1.51,0.51,3.16,0.51,4.76
			c0.01,23.63-0.01,47.27-0.02,70.9c-0.07,14-0.15,27.99-0.19,41.98c-0.03,7.88,0.12,15.76-0.08,23.63
			c-0.07,2.771,0.62,3.53,3.47,3.521C-302.107,316.867-280.857,317.046-259.607,316.887z"/>
		<path fill="#FDFDFD" d="M-326.008,174.717c0,23.8,0.01,47.6-0.02,71.39c0,0.58-0.35,1.16-0.53,1.73c0.06-0.36,0.16-0.72,0.16-1.1
			c0.02-24.08,0-48.16-0.02-72.23c0-0.8,0.43-1.79-0.63-2.33C-325.837,172.667-326.008,173.747-326.008,174.717z"/>
		<path fill="#FDFDFD" d="M-483.567,316.707c-1.37-0.55-2.94,0.33-4.26-0.569C-486.408,316.327-484.877,315.667-483.567,316.707z"/>
		<path fill="#FDFDFD" d="M-487.288,174.877c0.01,17.24,0.01,34.48,0.01,51.73c0,0.86,0.11,1.76-0.55,2.48
			c0.36-18.64,0.09-37.28,0.14-55.93c0-0.4-0.22-0.7-0.38-1.03C-487.087,172.837-487.288,173.897-487.288,174.877z"/>
		<path fill="#FDFDFD" d="M-970.828,376.097c-0.74-1.13-0.56-2.391-0.56-3.63c0.02-25.58,0.07-51.171,0.08-76.75
			c0.03-41.181,0.02-82.371,0.03-123.55c1.24-1.31,2.83-0.67,4.24-0.67c30.19,0,60.37,0.06,90.56,0.1c0.61,0,1.23-0.09,1.85-0.14
			c1.27,0.68,2.65,0.51,4,0.48c26.56,2.66,49.26,13.3,67.55,32.86c7.41,7.93,13.42,16.86,17.76,26.84c1.01,2.33,1.27,3.41,4.04,1.13
			c9.59-7.86,19.62-15.18,29.36-22.86c13.48-10.62,26.8-21.45,40.3-32.05c10.82-8.49,21.9-16.64,32.62-25.24
			c2.17-1.74,3.17-1.36,4.93,0.05c7.67,6.12,15.43,12.14,23.14,18.22c4,3.15,7.87,6.48,11.99,9.45c1.8,1.3,1.81,1.94,0.17,3.22
			c-20.17,15.71-40.34,31.43-60.47,47.21c-11.33,8.89-22.51,17.97-33.91,26.77c-2.12,1.64-1.51,2.04,0.13,3.27
			c4.94,3.74,9.79,7.61,14.62,11.51c1.49,1.21,2.4,1.29,4.08-0.08c7.91-6.48,16-12.73,24.07-19.01
			c8.44-6.57,16.96-13.04,25.39-19.64c7.77-6.08,15.43-12.31,23.18-18.42c6.21-4.89,12.46-9.73,18.75-14.51
			c0.8-0.61,1.56-1.19,2.21-1.95c1.57-1.79,2.99-1.83,5-0.21c11.02,8.87,22.17,17.57,33.27,26.32c0.69,0.55,1.33,1.15,2.03,1.66
			c1.7,1.24,1.9,1.93-0.1,3.48c-15.09,11.67-30.03,23.55-45.03,35.34c-16.88,13.25-33.78,26.48-50.94,39.93
			c5.93,4.689,11.7,9.189,17.38,13.81c1.37,1.13,2.19,0.48,3.21-0.31c24.63-19.36,49.28-38.7,73.9-58.07
			c7.08-5.56,14.01-11.3,21.2-16.71c1.68-1.27,1.5-2.57,1.5-4.09c0.04-21.24,0.15-42.49,0.01-63.74c-0.02-3.34,0.83-4.1,4.11-4.08
			c22.37,0.16,44.74,0.09,67.11,0.09c0.06,1.5,0.17,2.99,0.17,4.49c0.03,17.49,0.05,34.98,0.07,52.47
			c-0.07,5.48-0.19,10.95-0.19,16.43c-0.03,22.18-0.02,44.35,0,66.53c0,1.37,0.12,2.73,0.19,4.091c1.27,1.29,2.83,0.46,4.26,0.569
			c17.11,0.061,34.21,0.13,51.32,0.181c4,0.02,8,0.149,11.99-0.051c2.53-0.119,3.42,0.54,3.4,3.261
			c-0.15,17.729-0.19,35.47-0.1,53.21c0.02,2.97-1.13,3.47-3.77,3.46c-22.73-0.13-45.46-0.13-68.2-0.15c-1.36,0-2.73,0.14-4.09,0.21
			h-0.01c-0.85-0.38-1.73-0.39-2.61-0.359c-2.98-0.23-5.97,0.039-8.95,0.02c-18.23-0.15-36.47-0.21-54.71-0.3
			c0-23.36,0-46.71,0-70.78c-6.16,4.811-11.88,9.25-17.59,13.72c-16.92,13.23-33.84,26.46-50.74,39.721
			c-15.63,12.26-31.27,24.5-46.81,36.88c-2.02,1.62-3.44,1.41-5.17-0.021c-11.4-9.34-23.19-18.189-34.67-27.41
			c-8.83-7.1-17.82-14.01-26.6-21.18c-8.76-7.16-18.02-13.72-26.81-20.85c-4.64-3.761-9.39-7.36-14.01-11.12
			c-2.43-1.98-2.99-0.83-3.86,1.13c-5.52,12.44-13.44,23.19-23.49,32.3c-15.72,14.26-34.13,22.891-55.17,26.15
			c-12.02,1.87-24.07,1.229-36.11,1.279c-23,0.091-46-0.039-69-0.069c-0.5,0-0.99,0.109-1.48,0.17
			C-970.817,376.107-970.817,376.097-970.828,376.097z M-844.558,288.957c2.06-6.81,2.37-13.81,1.67-20.79
			c-1.67-16.66-9.74-28.74-25.81-34.83c-10.61-4.02-21.68-2.73-32.62-2.88c-2.3-0.03-1.48,1.93-1.49,3.09
			c-0.05,13.37-0.03,26.74-0.03,40.1c0,13.37,0.09,26.74-0.07,40.109c-0.04,2.86,0.78,3.62,3.56,3.49
			c6.11-0.29,12.24-0.06,18.35-0.39C-863.408,315.927-849.498,305.197-844.558,288.957z"/>
		<path fill="#FDFDFD" d="M-559.297,376.187c1.31,0.62,2.7,0.31,4.04,0.31c19.4,0.03,38.79,0.01,58.18,0.03
			c0.47,0,0.95-0.04,1.44-0.06c0.87,0.069,1.74,0.18,2.61,0.359c-21.16,0.03-42.33,0.05-63.5,0.07
			C-557.498,376.897-558.547,377.086-559.297,376.187z"/>
		<path fill="#FDFDFD" d="M-590.538-145.993c-1.33-0.05-2.74,0.49-3.96-0.48C-593.208-146.013-591.808-146.593-590.538-145.993z"/>
		<path fill="#FDFDFD" d="M-590.558,701.767c-1.26,0.609-2.67,0.02-3.95,0.479C-593.288,701.287-591.888,701.817-590.558,701.767z"
			/>
		<path fill="#FDFDFD" d="M-607.038-146.743c-6.94,0-13.88,0-20.82,0C-620.917-147.223-613.978-147.223-607.038-146.743z"/>
		<path fill="#FDFDFD" d="M-627.808,702.517c6.67,0,13.34,0,20.02,0C-614.458,703.006-621.138,703.006-627.808,702.517z"/>
		<path fill="#FDFDFD" d="M-645.058-145.993c1.27-0.6,2.68-0.02,3.97-0.48C-642.317-145.503-643.718-146.043-645.058-145.993z"/>
		<path fill="#FDFDFD" d="M-645.038,701.767c1.32,0.05,2.72-0.48,3.94,0.479c-1.21-0.43-2.53,0.07-3.74-0.39
			C-644.908,701.827-644.968,701.796-645.038,701.767z"/>
		<path fill="#FDFDFD" d="M-874.627,171.457c1.35,0.04,2.77-0.51,4,0.48C-871.928,171.517-873.348,172.047-874.627,171.457z"/>
		<path fill="#FDFDFD" d="M-971.458,174.767c-0.01,66.08-0.01,132.17,0.03,198.25c0,1.01-0.6,2.26,0.6,3.08
			c-1.5-0.74-1-2.141-1-3.301c-0.03-65.93-0.02-131.85-0.02-197.78c0-0.98-0.21-2.02,0.57-2.85
			C-971.547,173.017-971.458,173.897-971.458,174.767z"/>
		<path fill="#FDFDFD" d="M-1041.688,305.157c0.25,14.04,2.25,27.88,4.45,41.73c3.09,19.51,7.65,38.659,13.49,57.52
			c9.16,29.62,21.58,57.8,36.95,84.71c16.95,29.67,37.29,56.83,60.74,81.64c11.99,12.681,24.84,24.471,38.35,35.561
			c22.78,18.72,47.18,34.95,73.32,48.57c28.24,14.72,57.71,26.25,88.57,34.21c16.02,4.13,32.18,7.449,48.57,9.68
			c10.7,1.46,21.38,2.94,32.21,2.99c0.07,0.029,0.13,0.069,0.2,0.09c1.19,0.56,2.47,0.43,3.74,0.39
			c4.43,0.09,8.86,0.181,13.29,0.271c6.67,0.739,13.35,0.739,20.02,0c4.43-0.09,8.86-0.181,13.28-0.271
			c1.34,0.04,2.7,0.181,3.95-0.479c16.21-0.23,32.22-2.55,48.08-5.49c43.31-8.03,84.62-21.94,123.49-42.89
			c16.44-8.86,32.21-18.641,47.49-29.36c14.33-10.06,28.04-20.86,40.74-32.82c9.99-9.399,19.77-19.069,28.9-29.37
			c8.53-9.619,16.67-19.5,24.44-29.729c11.86-15.61,22.32-32.09,31.94-49.11c8.07-14.29,14.89-29.2,21.14-44.38
			c10.11-24.54,17.7-49.82,22.97-75.79c1.94-9.52,3.39-19.13,4.6-28.8c1.2-9.62,2.45-19.21,2.85-28.91
			c0.64-1.25,0.53-2.59,0.48-3.93c0.09-4.42,0.18-8.851,0.27-13.28c0.74-6.68,0.74-13.36,0-20.04c-0.09-4.42-0.18-8.85-0.27-13.27
			c0.04-1.34,0.16-2.69-0.48-3.94c-0.11-11.09-1.69-22.05-3.17-32.99c-2.45-18.07-6.22-35.91-11.09-53.5
			c-6.9-24.92-16.02-49.04-27.34-72.27c-8.52-17.48-18.25-34.3-29.22-50.39c-9.68-14.19-20.01-27.82-31.13-40.93
			c-6.82-8.04-14.13-15.59-21.47-23.04c-5.34-5.42-10.84-10.82-16.68-15.84c-9.65-8.3-19.38-16.44-29.52-24.15
			c-18.97-14.43-39.19-26.79-60.21-37.88c-13.44-7.1-27.4-13.11-41.58-18.56c-22.06-8.49-44.68-15.14-67.87-19.74
			c-11.32-2.24-22.72-4.09-34.25-5.24c-7.69-0.77-15.35-1.83-23.09-2.12c-1.26-0.63-2.61-0.56-3.96-0.48
			c-4.18-0.09-8.36-0.18-12.54-0.27c-6.94-0.71-13.88-0.77-20.82,0c-4.41,0.09-8.82,0.18-13.23,0.27c-1.36-0.07-2.71-0.15-3.97,0.48
			c-12.47,0.13-24.77,1.94-37.07,3.73c-21.82,3.2-43.22,8.21-64.24,14.83c-27.18,8.57-53.16,19.91-78.08,33.74
			c-25.24,14-48.77,30.47-70.65,49.25c-13.06,11.22-25.37,23.25-36.97,36.02c-9.46,10.41-18.53,21.14-26.87,32.44
			c-21.11,28.6-38.68,59.25-52.14,92.21c-8.77,21.48-15.92,43.45-20.98,66.1c-2.69,12.06-5.04,24.18-6.68,36.44
			c-1.41,10.59-2.91,21.15-2.95,31.85c-0.64,1.27-0.54,2.62-0.47,3.97c-0.09,4.18-0.18,8.36-0.27,12.54
			c-0.74,7.169-0.74,14.35,0,21.52c0.09,4.18,0.18,8.359,0.27,12.53C-1042.218,302.537-1042.328,303.887-1041.688,305.157z
			 M-617.218-222.153c277.54,0.41,500.06,225.41,499.45,501c-0.61,276.71-224.71,498.89-500.23,499.18
			c-276.8-0.81-500.62-224.94-499.92-500.69C-1117.208,0.347-893.067-222.553-617.218-222.153z"/>
		<path fill="#FDFDFD" d="M-1042.158,301.177c0.97,1.229,0.43,2.64,0.47,3.979C-1042.268,303.887-1041.708,302.467-1042.158,301.177
			z"/>
		<path fill="#FDFDFD" d="M-1042.158,254.587c0.45-1.29-0.11-2.7,0.47-3.97C-1041.738,251.957-1041.188,253.357-1042.158,254.587z"
			/>
		<path fill="#FDFDFD" d="M-1042.428,267.127c0,7.169,0,14.35,0,21.52C-1042.917,281.477-1042.917,274.296-1042.428,267.127z"/>
	</g>
	<g>
	</g>
</g>
</svg>
