<?xml version="1.0" encoding="utf-8"?>
<!-- Generator: Adobe Illustrator 16.0.0, SVG Export Plug-In . SVG Version: 6.00 Build 0)  -->
<!DOCTYPE svg PUBLIC "-//W3C//DTD SVG 1.1//EN" "http://www.w3.org/Graphics/SVG/1.1/DTD/svg11.dtd">
<svg version="1.1" id="Layer_1" xmlns="http://www.w3.org/2000/svg" xmlns:xlink="http://www.w3.org/1999/xlink" x="0px" y="0px"
	 width="792px" height="612px" viewBox="0 0 792 612" enable-background="new 0 0 792 612" xml:space="preserve">
<g id="XMLID_1_">
	<g>
		<path fill="#FFFFFF" d="M637.426,300.379c0.268,3.729,0.268,7.458,0,11.188C637.426,307.837,637.426,304.108,637.426,300.379z"/>
		<path fill="#FFFFFF" d="M637.275,318.979c-0.257,0.715,0.072,1.496-0.269,2.194C637.035,320.437,636.733,319.661,637.275,318.979z
			"/>
		<path fill="#FFFFFF" d="M637.007,290.771c0.341,0.698,0.012,1.485,0.269,2.2C636.733,292.29,637.035,291.508,637.007,290.771z"/>
		<path fill="#FFFFFF" d="M600.336,327.744c1.942-0.012,2.256,0.575,2.233,2.35c-0.106,9.697-0.106,19.399-0.051,29.096
			c0.006,1.597-0.379,2.104-2.07,2.1c-25.121-0.095-50.242-0.123-75.363-0.101c-1.681,0-2.055-0.48-2.049-2.094
			c0.062-36.704,0.084-73.409,0.039-110.113c0-1.764,0.598-2.043,2.149-2.032c11.862,0.078,23.726,0.083,35.588,0.1
			c0.625,0,1.25-0.061,1.876-0.089c0.475,0.843,0.284,1.764,0.284,2.657c0.006,13.191-0.005,26.388-0.011,39.58
			c-0.039,7.815-0.084,15.625-0.106,23.436c-0.017,4.398,0.067,8.798-0.045,13.19c-0.039,1.547,0.347,1.971,1.938,1.966
			C576.61,327.732,588.474,327.833,600.336,327.744z"/>
		<path fill="#FFFFFF" d="M563.269,248.378c0,13.286,0.006,26.573-0.011,39.853c0,0.324-0.195,0.647-0.296,0.966
			c0.033-0.201,0.089-0.402,0.089-0.614c0.012-13.443,0-26.885-0.011-40.322c0-0.446,0.24-0.999-0.352-1.301
			C563.363,247.234,563.269,247.837,563.269,248.378z"/>
		<path fill="#FFFFFF" d="M472.934,327.325c0.793,0.106,1.647-0.263,2.378,0.318C474.547,327.337,473.671,327.828,472.934,327.325z"
			/>
		<path fill="#FFFFFF" d="M473.235,248.468c0.006,9.624,0.006,19.249,0.006,28.878c0,0.48,0.062,0.982-0.308,1.385
			c0.201-10.406,0.051-20.812,0.078-31.223c0-0.223-0.122-0.391-0.212-0.575C473.347,247.329,473.235,247.921,473.235,248.468z"/>
		<path fill="#FFFFFF" d="M204.14,360.708c-0.279,0-0.552,0.062-0.826,0.095c-0.005,0-0.005-0.005-0.011-0.005
			c-0.414-0.631-0.313-1.334-0.313-2.026c0.011-14.28,0.039-28.565,0.045-42.846c0.017-22.988,0.011-45.982,0.017-68.971
			c0.692-0.731,1.58-0.374,2.367-0.374c16.853,0,33.701,0.034,50.554,0.056c0.341,0,0.687-0.05,1.033-0.078
			c0.709,0.38,1.479,0.285,2.233,0.268c14.827,1.485,27.499,7.425,37.709,18.344c4.137,4.427,7.492,9.412,9.915,14.983
			c0.563,1.301,0.709,1.904,2.255,0.631c5.354-4.388,10.953-8.474,16.39-12.762c7.525-5.928,14.961-11.974,22.498-17.892
			c6.04-4.739,12.225-9.289,18.209-14.09c1.211-0.971,1.77-0.759,2.752,0.028c4.282,3.417,8.614,6.777,12.917,10.171
			c2.233,1.758,4.394,3.617,6.693,5.275c1.005,0.726,1.011,1.083,0.095,1.797c-11.26,8.77-22.52,17.545-33.757,26.354
			c-6.325,4.963-12.566,10.032-18.93,14.944c-1.184,0.916-0.843,1.139,0.072,1.826c2.758,2.087,5.465,4.248,8.162,6.425
			c0.832,0.675,1.34,0.72,2.278-0.045c4.416-3.617,8.932-7.106,13.437-10.612c4.711-3.667,9.468-7.279,14.173-10.964
			c4.338-3.394,8.614-6.872,12.94-10.283c3.466-2.73,6.956-5.432,10.467-8.1c0.446-0.34,0.87-0.664,1.233-1.088
			c0.876-1,1.669-1.021,2.791-0.117c6.152,4.952,12.376,9.808,18.573,14.693c0.385,0.307,0.742,0.642,1.133,0.927
			c0.949,0.692,1.061,1.077-0.056,1.942c-8.424,6.515-16.764,13.147-25.138,19.729c-9.423,7.396-18.857,14.782-28.437,22.291
			c3.311,2.618,6.531,5.13,9.702,7.709c0.765,0.631,1.223,0.268,1.792-0.173c13.75-10.808,27.51-21.604,41.254-32.417
			c3.952-3.104,7.821-6.308,11.835-9.328c0.938-0.709,0.837-1.435,0.837-2.283c0.022-11.857,0.084-23.72,0.006-35.583
			c-0.012-1.865,0.463-2.289,2.294-2.278c12.488,0.089,24.976,0.05,37.464,0.05c0.033,0.837,0.095,1.669,0.095,2.507
			c0.017,9.764,0.028,19.527,0.039,29.291c-0.039,3.059-0.105,6.113-0.105,9.172c-0.017,12.382-0.012,24.758,0,37.14
			c0,0.765,0.066,1.524,0.105,2.283c0.709,0.721,1.58,0.257,2.378,0.318c9.552,0.033,19.098,0.072,28.649,0.101
			c2.233,0.011,4.466,0.084,6.693-0.028c1.412-0.066,1.909,0.302,1.898,1.82c-0.084,9.897-0.106,19.801-0.057,29.704
			c0.012,1.658-0.63,1.937-2.104,1.932c-12.688-0.073-25.377-0.073-38.072-0.084c-0.759,0-1.523,0.078-2.283,0.117h-0.005
			c-0.475-0.212-0.966-0.218-1.457-0.201c-1.664-0.128-3.333,0.022-4.996,0.012c-10.177-0.084-20.359-0.117-30.542-0.168
			c0-13.04,0-26.075,0-39.513c-3.438,2.686-6.632,5.164-9.819,7.659c-9.445,7.386-18.891,14.771-28.325,22.174
			c-8.726,6.844-17.457,13.677-26.131,20.588c-1.128,0.904-1.92,0.787-2.886-0.011c-6.364-5.215-12.946-10.155-19.354-15.302
			c-4.929-3.964-9.948-7.821-14.849-11.823c-4.89-3.997-10.06-7.659-14.966-11.64c-2.59-2.1-5.242-4.108-7.821-6.208
			c-1.356-1.105-1.669-0.463-2.155,0.631c-3.082,6.944-7.502,12.946-13.113,18.031c-8.776,7.961-19.053,12.778-30.798,14.599
			c-6.71,1.044-13.437,0.687-20.158,0.714C229.819,360.798,216.979,360.725,204.14,360.708z M273.792,312.152
			c1.15-3.802,1.323-7.709,0.932-11.606c-0.932-9.3-5.438-16.044-14.408-19.443c-5.923-2.244-12.103-1.524-18.21-1.608
			c-1.284-0.017-0.826,1.077-0.832,1.725c-0.028,7.463-0.017,14.927-0.017,22.385c0,7.464,0.05,14.928-0.039,22.392
			c-0.022,1.597,0.436,2.021,1.987,1.948c3.411-0.162,6.833-0.034,10.244-0.218C263.269,327.208,271.034,321.218,273.792,312.152z"
			/>
		<path fill="#FFFFFF" d="M433.036,360.848c0.731,0.347,1.508,0.173,2.256,0.173c10.829,0.018,21.654,0.006,32.479,0.018
			c0.262,0,0.53-0.022,0.804-0.034c0.485,0.039,0.971,0.101,1.457,0.201c-11.813,0.017-23.631,0.028-35.448,0.039
			C434.041,361.244,433.455,361.351,433.036,360.848z"/>
		<path fill="#FFFFFF" d="M413.386,69.077c0.721,0.257,1.502-0.067,2.211,0.268C414.854,69.316,414.067,69.618,413.386,69.077z"/>
		<path fill="#FFFFFF" d="M413.381,542.868c0.681-0.535,1.462-0.239,2.205-0.268C414.882,542.941,414.095,542.611,413.381,542.868z"
			/>
		<path fill="#FFFFFF" d="M406.386,68.926c-3.874,0-7.748,0-11.623,0C398.638,68.658,402.512,68.658,406.386,68.926z"/>
		<path fill="#FFFFFF" d="M394.791,543.02c3.724,0,7.447,0,11.176,0C402.243,543.293,398.515,543.293,394.791,543.02z"/>
		<path fill="#FFFFFF" d="M385.161,69.344c0.709-0.334,1.496-0.011,2.216-0.268C386.691,69.618,385.909,69.316,385.161,69.344z"/>
		<path fill="#FFFFFF" d="M385.284,542.65c-0.039-0.017-0.073-0.033-0.112-0.05c0.737,0.028,1.519-0.268,2.2,0.268
			C386.696,542.629,385.959,542.907,385.284,542.65z"/>
		<path fill="#FFFFFF" d="M257.005,246.559c0.754,0.022,1.546-0.285,2.233,0.268C258.513,246.592,257.72,246.888,257.005,246.559z"
			/>
		<path fill="#FFFFFF" d="M202.951,248.407c-0.005,36.889-0.005,73.783,0.017,110.671c0,0.563-0.335,1.262,0.335,1.72
			c-0.837-0.413-0.559-1.195-0.559-1.843c-0.017-36.805-0.011-73.604-0.011-110.409c0-0.547-0.117-1.127,0.318-1.591
			C202.9,247.43,202.951,247.921,202.951,248.407z"/>
		<path fill="#FFFFFF" d="M163.483,318.974c0.542,0.688,0.24,1.475,0.263,2.223C163.421,320.487,163.734,319.694,163.483,318.974z"
			/>
		<path fill="#FFFFFF" d="M163.483,292.965c0.251-0.72-0.062-1.507,0.263-2.216C163.717,291.497,164.024,292.279,163.483,292.965z"
			/>
		<path fill="#FFFFFF" d="M163.333,299.966c0,4.002,0,8.011,0,12.014C163.059,307.977,163.059,303.968,163.333,299.966z"/>
		<path fill="#FFFFFF" d="M163.746,321.196c0.139,7.837,1.256,15.563,2.484,23.295c1.725,10.892,4.271,21.582,7.531,32.11
			c5.114,16.535,12.047,32.267,20.627,47.289c9.462,16.563,20.817,31.725,33.908,45.574c6.693,7.079,13.867,13.66,21.409,19.852
			c12.717,10.45,26.338,19.511,40.931,27.113c15.765,8.218,32.216,14.654,49.443,19.098c8.943,2.306,17.964,4.159,27.114,5.404
			c5.973,0.814,11.936,1.641,17.981,1.669c0.039,0.017,0.073,0.039,0.112,0.05c0.664,0.313,1.379,0.24,2.088,0.218
			c2.473,0.051,4.946,0.101,7.419,0.151c3.724,0.413,7.452,0.413,11.176,0c2.474-0.051,4.946-0.101,7.414-0.151
			c0.748,0.022,1.507,0.101,2.205-0.268c9.049-0.128,17.986-1.424,26.84-3.064c24.178-4.483,47.238-12.248,68.938-23.943
			c9.178-4.946,17.981-10.405,26.511-16.39c8-5.616,15.653-11.646,22.743-18.322c5.577-5.247,11.036-10.646,16.133-16.396
			c4.762-5.37,9.307-10.886,13.644-16.597c6.621-8.714,12.46-17.914,17.83-27.415c4.506-7.978,8.313-16.301,11.802-24.774
			c5.644-13.699,9.881-27.812,12.823-42.31c1.083-5.314,1.892-10.679,2.567-16.077c0.67-5.37,1.368-10.724,1.591-16.139
			c0.357-0.698,0.296-1.446,0.269-2.194c0.05-2.468,0.101-4.94,0.15-7.413c0.413-3.729,0.413-7.458,0-11.188
			c-0.05-2.467-0.101-4.94-0.15-7.408c0.022-0.748,0.089-1.502-0.269-2.2c-0.062-6.191-0.943-12.309-1.77-18.417
			c-1.367-10.087-3.472-20.046-6.19-29.866c-3.853-13.912-8.943-27.376-15.263-40.344c-4.756-9.758-10.188-19.148-16.312-28.13
			c-5.404-7.921-11.171-15.53-17.379-22.849c-3.807-4.488-7.888-8.703-11.985-12.862c-2.98-3.025-6.051-6.04-9.312-8.842
			c-5.387-4.634-10.818-9.178-16.479-13.482c-10.59-8.055-21.878-14.955-33.612-21.146c-7.503-3.964-15.296-7.319-23.212-10.361
			c-12.314-4.739-24.942-8.452-37.888-11.02c-6.319-1.25-12.684-2.283-19.12-2.925c-4.293-0.43-8.568-1.021-12.89-1.184
			c-0.703-0.352-1.457-0.313-2.211-0.268c-2.333-0.05-4.667-0.101-7-0.151c-3.874-0.396-7.748-0.43-11.623,0
			c-2.462,0.05-4.924,0.101-7.386,0.151c-0.759-0.039-1.513-0.084-2.216,0.268c-6.961,0.073-13.828,1.083-20.694,2.083
			c-12.181,1.786-24.127,4.583-35.861,8.279c-15.173,4.784-29.676,11.115-43.588,18.835c-14.09,7.815-27.226,17.01-39.44,27.494
			c-7.291,6.263-14.163,12.979-20.638,20.108c-5.281,5.811-10.344,11.801-15,18.109c-11.785,15.966-21.593,33.076-29.107,51.476
			c-4.896,11.991-8.887,24.255-11.712,36.9c-1.501,6.732-2.813,13.498-3.729,20.342c-0.787,5.912-1.625,11.807-1.646,17.78
			c-0.357,0.709-0.302,1.463-0.263,2.216c-0.05,2.333-0.101,4.667-0.15,7c-0.413,4.002-0.413,8.011,0,12.014
			c0.05,2.333,0.1,4.667,0.15,6.994C163.45,319.733,163.388,320.487,163.746,321.196z M121.19,305.666
			c0.396-154.628,125.521-279.06,279.513-278.837c154.935,0.229,279.154,125.833,278.814,279.68
			c-0.341,154.471-125.443,278.502-279.25,278.664C245.746,584.72,120.8,459.601,121.19,305.666z"/>
	</g>
	<g>
	</g>
</g>
</svg>
