<?xml version="1.0" encoding="utf-8"?>
<!-- Generator: Adobe Illustrator 16.0.0, SVG Export Plug-In . SVG Version: 6.00 Build 0)  -->
<!DOCTYPE svg PUBLIC "-//W3C//DTD SVG 1.1//EN" "http://www.w3.org/Graphics/SVG/1.1/DTD/svg11.dtd">
<svg version="1.1" id="Layer_1" xmlns="http://www.w3.org/2000/svg" xmlns:xlink="http://www.w3.org/1999/xlink" x="0px" y="0px"
	 width="792px" height="612px" viewBox="0 0 792 612" enable-background="new 0 0 792 612" xml:space="preserve">
<path fill-rule="evenodd" clip-rule="evenodd" fill="#FFFFFF" d="M368,252.713c-19.809-0.003-39.619,0.029-59.427-0.049
	c-2.207-0.008-2.688,0.363-1.746,2.487c1.299,2.92,2.402,5.941,3.378,8.987c0.57,1.78,1.455,2.309,3.336,2.304
	c33.29-0.067,66.579-0.06,99.867-0.042c15.272,0.009,26.835,10.317,28.602,25.426c1.773,15.164-9.801,29.481-24.979,30.895
	c-15.528,1.447-29.409-10.246-30.484-25.683c-0.208-2.967-0.283-5.984,0.664-8.801c0.845-2.505-0.18-2.568-2.182-2.56
	c-14.959,0.064-29.919,0.034-44.879,0.035c-2.301,0-4.607,0.098-6.902-0.029c-1.773-0.098-2.144,0.25-1.717,2.146
	c2.231,9.896,0.095,18.804-6.88,26.264c-10.56,11.296-27.967,11.715-39.177,1.093c-11.246-10.655-11.764-28.732-1.145-39.974
	c1.702-1.802,3.513-3.53,5.728-4.626c1.702-0.84,1.613-1.713,1.025-3.262c-8.92-23.486-17.775-46.998-26.642-70.506
	c-7.678-20.356-15.383-40.703-22.975-61.092c-0.709-1.905-1.633-2.391-3.55-2.357c-6.984,0.118-13.973,0.07-20.959,0.04
	c-5.976-0.026-10.282-4.086-10.288-9.63c-0.006-5.598,4.272-9.644,10.234-9.648c9.78-0.009,19.562-0.007,29.342-0.001
	c5.218,0.001,8.197,2.076,10.071,7.034c3.164,8.371,6.36,16.731,9.427,25.137c0.637,1.745,1.49,2.286,3.358,2.284
	c61.071-0.057,122.142,0.06,183.213-0.169c8.468-0.032,12.815,6.85,10.436,14.297c-8.693,27.217-16.908,54.588-25.31,81.898
	c-1.828,5.939-4.791,8.106-11,8.106C406.96,252.716,387.48,252.716,368,252.713z"/>
</svg>
